<svg xmlns="http://www.w3.org/2000/svg" style="display: none">
  <defs>
    <symbol id="Angular" viewBox="0 0 223 236">
      <path
        d="m222.077 39.192-8.019 125.923L137.387 0l84.69 39.192Zm-53.105 162.825-57.933 33.056-57.934-33.056 11.783-28.556h92.301l11.783 28.556ZM111.039 62.675l30.357 73.803H80.681l30.358-73.803ZM7.937 165.115 0 39.192 84.69 0 7.937 165.115Z"
      ></path>
      <path
        d="m222.077 39.192-8.019 125.923L137.387 0l84.69 39.192Zm-53.105 162.825-57.933 33.056-57.934-33.056 11.783-28.556h92.301l11.783 28.556ZM111.039 62.675l30.357 73.803H80.681l30.358-73.803ZM7.937 165.115 0 39.192 84.69 0 7.937 165.115Z"
      ></path>
    </symbol>
    <symbol id="Cart" viewBox="0 -960 960 960">
      <path
        d="M280-80q-33 0-56.5-23.5T200-160q0-33 23.5-56.5T280-240q33 0 56.5 23.5T360-160q0 33-23.5 56.5T280-80Zm400 0q-33 0-56.5-23.5T600-160q0-33 23.5-56.5T680-240q33 0 56.5 23.5T760-160q0 33-23.5 56.5T680-80ZM246-720l96 200h280l110-200H246Zm-38-80h590q23 0 35 20.5t1 41.5L692-482q-11 20-29.5 31T622-440H324l-44 80h480v80H280q-45 0-68-39.5t-2-78.5l54-98-144-304H40v-80h130l38 80Zm134 280h280-280Z"
      />
    </symbol>
    <symbol id="LightMode" viewBox="0 -960 960 960">
      <path
        d="M480-360q50 0 85-35t35-85q0-50-35-85t-85-35q-50 0-85 35t-35 85q0 50 35 85t85 35Zm0 80q-83 0-141.5-58.5T280-480q0-83 58.5-141.5T480-680q83 0 141.5 58.5T680-480q0 83-58.5 141.5T480-280ZM200-440H40v-80h160v80Zm720 0H760v-80h160v80ZM440-760v-160h80v160h-80Zm0 720v-160h80v160h-80ZM256-650l-101-97 57-59 96 100-52 56Zm492 496-97-101 53-55 101 97-57 59Zm-98-550 97-101 59 57-100 96-56-52ZM154-212l101-97 55 53-97 101-59-57Zm326-268Z"
      />
    </symbol>
    <symbol id="DarkMode" viewBox="0 -960 960 960">
      <path
        d="M480-120q-150 0-255-105T120-480q0-150 105-255t255-105q14 0 27.5 1t26.5 3q-41 29-65.5 75.5T444-660q0 90 63 153t153 63q55 0 101-24.5t75-65.5q2 13 3 26.5t1 27.5q0 150-105 255T480-120Zm0-80q88 0 158-48.5T740-375q-20 5-40 8t-40 3q-123 0-209.5-86.5T364-660q0-20 3-40t8-40q-78 32-126.5 102T200-480q0 116 82 198t198 82Zm-10-270Z"
      />
    </symbol>
    <symbol id="Routine" viewBox="0 -960 960 960">
      <path
        d="M396-396q-32-32-58.5-67T289-537q-5 14-6.5 28.5T281-480q0 83 58 141t141 58q14 0 28.5-2t28.5-6q-39-22-74-48.5T396-396Zm57-56q51 51 114 87.5T702-308q-40 51-98 79.5T481-200q-117 0-198.5-81.5T201-480q0-65 28.5-123t79.5-98q20 72 56.5 135T453-452Zm290 72q-20-5-39.5-11T665-405q8-18 11.5-36.5T680-480q0-83-58.5-141.5T480-680q-20 0-38.5 3.5T405-665q-8-19-13.5-38T381-742q24-9 49-13.5t51-4.5q117 0 198.5 81.5T761-480q0 26-4.5 51T743-380ZM440-840v-120h80v120h-80Zm0 840v-120h80V0h-80Zm323-706-57-57 85-84 57 56-85 85ZM169-113l-57-56 85-85 57 57-85 84Zm671-327v-80h120v80H840ZM0-440v-80h120v80H0Zm791 328-85-85 57-57 84 85-56 57ZM197-706l-84-85 56-57 85 85-57 57Zm199 310Z"
      />
    </symbol>
    <symbol id="Search" viewBox="0 -960 960 960">
      <path
        d="M784-120 532-372q-30 24-69 38t-83 14q-109 0-184.5-75.5T120-580q0-109 75.5-184.5T380-840q109 0 184.5 75.5T640-580q0 44-14 83t-38 69l252 252-56 56ZM380-400q75 0 127.5-52.5T560-580q0-75-52.5-127.5T380-760q-75 0-127.5 52.5T200-580q0 75 52.5 127.5T380-400Z"
      />
    </symbol>
    <symbol id="Downloading" viewBox="0 -960 960 960">
      <path
        d="M439-82q-76-8-141.5-42.5t-113.5-88Q136-266 108.5-335T81-481q0-155 102.5-268.5T440-880v80q-121 17-200 107.5T161-481q0 121 79 211.5T439-162v80Zm40-198L278-482l57-57 104 104v-245h80v245l103-103 57 58-200 200Zm40 198v-80q43-6 82.5-23t73.5-43l58 58q-47 37-101 59.5T519-82Zm158-652q-35-26-74.5-43T520-800v-80q59 6 113 28.5T733-792l-56 58Zm112 506-56-57q26-34 42-73.5t22-82.5h82q-8 59-30 113.5T789-228Zm8-293q-6-43-22-82.5T733-677l56-57q38 45 61 99.5T879-521h-82Z"
      />
    </symbol>
    <symbol id="ChevronRight" viewBox="0 -960 960 960">
      <path d="M504-480 320-664l56-56 240 240-240 240-56-56 184-184Z" />
    </symbol>
    <symbol id="Delete" viewBox="0 -960 960 960">
      <path
        d="M280-120q-33 0-56.5-23.5T200-200v-520h-40v-80h200v-40h240v40h200v80h-40v520q0 33-23.5 56.5T680-120H280Zm400-600H280v520h400v-520ZM360-280h80v-360h-80v360Zm160 0h80v-360h-80v360ZM280-720v520-520Z"
      />
    </symbol>
    <symbol id="NoPhoto" viewBox="0 -960 960 960">
      <path
        d="m880-195-80-80v-405H638l-73-80H395l-38 42-57-57 60-65h240l74 80h126q33 0 56.5 23.5T880-680v485Zm-720 75q-33 0-56.5-23.5T80-200v-480q0-33 23.5-56.5T160-760h41l80 80H160v480h601l80 80H160Zm466-215q-25 34-62.5 54.5T480-260q-75 0-127.5-52.5T300-440q0-46 20.5-83.5T375-586l58 58q-24 13-38.5 36T380-440q0 42 29 71t71 29q29 0 52-14.5t36-38.5l58 58Zm-18-233q25 24 38.5 57t13.5 71v12q0 6-1 12L456-619q6-1 12-1h12q38 0 71 13.5t57 38.5ZM819-28 27-820l57-57L876-85l-57 57ZM407-440Zm171-57Z"
      />
    </symbol>
    <symbol id="Close" viewBox="0 -960 960 960">
      <path
        d="m256-200-56-56 224-224-224-224 56-56 224 224 224-224 56 56-224 224 224 224-56 56-224-224-224 224Z"
      />
    </symbol>
    <symbol id="ArrowDown" viewBox="0 -960 960 960">
      <path
        d="M440-800v487L216-537l-56 57 320 320 320-320-56-57-224 224v-487h-80Z"
      />
    </symbol>
    <symbol id="Download" viewBox="0 -960 960 960">
      <path
        d="M480-320 280-520l56-58 104 104v-326h80v326l104-104 56 58-200 200ZM240-160q-33 0-56.5-23.5T160-240v-120h80v120h480v-120h80v120q0 33-23.5 56.5T720-160H240Z"
      />
    </symbol>
    <symbol id="Link" viewBox="0 -960 960 960">
      <path
        d="M440-280H280q-83 0-141.5-58.5T80-480q0-83 58.5-141.5T280-680h160v80H280q-50 0-85 35t-35 85q0 50 35 85t85 35h160v80ZM320-440v-80h320v80H320Zm200 160v-80h160q50 0 85-35t35-85q0-50-35-85t-85-35H520v-80h160q83 0 141.5 58.5T880-480q0 83-58.5 141.5T680-280H520Z"
      />
    </symbol>
    <symbol id="Lightbulb" viewBox="0 -960 960 960">
      <path
        d="M480-80q-33 0-56.5-23.5T400-160h160q0 33-23.5 56.5T480-80ZM320-200v-80h320v80H320Zm10-120q-69-41-109.5-110T180-580q0-125 87.5-212.5T480-880q125 0 212.5 87.5T780-580q0 81-40.5 150T630-320H330Zm24-80h252q45-32 69.5-79T700-580q0-92-64-156t-156-64q-92 0-156 64t-64 156q0 54 24.5 101t69.5 79Zm126 0Z"
      />
    </symbol>
    <symbol id="Add" viewBox="0 -960 960 960">
      <path d="M440-440H200v-80h240v-240h80v240h240v80H520v240h-80v-240Z" />
    </symbol>
    <symbol id="MoreVert" viewBox="0 -960 960 960">
      <path
        d="M480-160q-33 0-56.5-23.5T400-240q0-33 23.5-56.5T480-320q33 0 56.5 23.5T560-240q0 33-23.5 56.5T480-160Zm0-240q-33 0-56.5-23.5T400-480q0-33 23.5-56.5T480-560q33 0 56.5 23.5T560-480q0 33-23.5 56.5T480-400Zm0-240q-33 0-56.5-23.5T400-720q0-33 23.5-56.5T480-800q33 0 56.5 23.5T560-720q0 33-23.5 56.5T480-640Z"
      />
    </symbol>
    <symbol id="Edit" viewBox="0 -960 960 960">
      <path
        d="M200-200h57l391-391-57-57-391 391v57Zm-80 80v-170l528-527q12-11 26.5-17t30.5-6q16 0 31 6t26 18l55 56q12 11 17.5 26t5.5 30q0 16-5.5 30.5T817-647L290-120H120Zm640-584-56-56 56 56Zm-141 85-28-29 57 57-29-28Z"
      />
    </symbol>
    <symbol id="Menu" viewBox="0 -960 960 960">
      <path
        d="M120-240v-80h720v80H120Zm0-200v-80h720v80H120Zm0-200v-80h720v80H120Z"
      />
    </symbol>
    <symbol id="Send" viewBox="0 -960 960 960">
      <path
        d="M120-160v-640l760 320-760 320Zm80-120 474-200-474-200v140l240 60-240 60v140Zm0 0v-400 400Z"
      />
    </symbol>
    <symbol id="Stop" viewBox="0 -960 960 960">
      <path
        d="M320-640v320-320Zm-80 400v-480h480v480H240Zm80-80h320v-320H320v320Z"
      />
    </symbol>
    <symbol id="Chat" viewBox="0 -960 960 960">
      <path
        d="M240-400h320v-80H240v80Zm0-120h480v-80H240v80Zm0-120h480v-80H240v80ZM80-80v-720q0-33 23.5-56.5T160-880h640q33 0 56.5 23.5T880-800v480q0 33-23.5 56.5T800-240H240L80-80Zm126-240h594v-480H160v525l46-45Zm-46 0v-480 480Z"
      />
    </symbol>
    <symbol id="Face" viewBox="0 -960 960 960">
      <path
        d="M360-390q-21 0-35.5-14.5T310-440q0-21 14.5-35.5T360-490q21 0 35.5 14.5T410-440q0 21-14.5 35.5T360-390Zm240 0q-21 0-35.5-14.5T550-440q0-21 14.5-35.5T600-490q21 0 35.5 14.5T650-440q0 21-14.5 35.5T600-390ZM480-160q134 0 227-93t93-227q0-24-3-46.5T786-570q-21 5-42 7.5t-44 2.5q-91 0-172-39T390-708q-32 78-91.5 135.5T160-486v6q0 134 93 227t227 93Zm0 80q-83 0-156-31.5T197-197q-54-54-85.5-127T80-480q0-83 31.5-156T197-763q54-54 127-85.5T480-880q83 0 156 31.5T763-763q54 54 85.5 127T880-480q0 83-31.5 156T763-197q-54 54-127 85.5T480-80Zm-54-715q42 70 114 112.5T700-640q14 0 27-1.5t27-3.5q-42-70-114-112.5T480-800q-14 0-27 1.5t-27 3.5ZM177-581q51-29 89-75t57-103q-51 29-89 75t-57 103Zm249-214Zm-103 36Z"
      />
    </symbol>
    <symbol id="SmartToy" viewBox="0 -960 960 960">
      <path
        d="M160-360q-50 0-85-35t-35-85q0-50 35-85t85-35v-80q0-33 23.5-56.5T240-760h120q0-50 35-85t85-35q50 0 85 35t35 85h120q33 0 56.5 23.5T800-680v80q50 0 85 35t35 85q0 50-35 85t-85 35v160q0 33-23.5 56.5T720-120H240q-33 0-56.5-23.5T160-200v-160Zm200-80q25 0 42.5-17.5T420-500q0-25-17.5-42.5T360-560q-25 0-42.5 17.5T300-500q0 25 17.5 42.5T360-440Zm240 0q25 0 42.5-17.5T660-500q0-25-17.5-42.5T600-560q-25 0-42.5 17.5T540-500q0 25 17.5 42.5T600-440ZM320-280h320v-80H320v80Zm-80 80h480v-480H240v480Zm240-240Z"
      />
    </symbol>
    <symbol id="Info" viewBox="0 -960 960 960">
      <path
        d="M440-280h80v-240h-80v240Zm40-320q17 0 28.5-11.5T520-640q0-17-11.5-28.5T480-680q-17 0-28.5 11.5T440-640q0 17 11.5 28.5T480-600Zm0 520q-83 0-156-31.5T197-197q-54-54-85.5-127T80-480q0-83 31.5-156T197-763q54-54 127-85.5T480-880q83 0 156 31.5T763-763q54 54 85.5 127T880-480q0 83-31.5 156T763-197q-54 54-127 85.5T480-80Zm0-80q134 0 227-93t93-227q0-134-93-227t-227-93q-134 0-227 93t-93 227q0 134 93 227t227 93Zm0-320Z"
      />
    </symbol>
  </defs>
</svg>
