<svg xmlns="http://www.w3.org/2000/svg" style="display: none">
  <defs>
    <symbol id="Angular" viewBox="0 0 223 236">
      <path
        d="m222.077 39.192-8.019 125.923L137.387 0l84.69 39.192Zm-53.105 162.825-57.933 33.056-57.934-33.056 11.783-28.556h92.301l11.783 28.556ZM111.039 62.675l30.357 73.803H80.681l30.358-73.803ZM7.937 165.115 0 39.192 84.69 0 7.937 165.115Z"
      ></path>
      <path
        d="m222.077 39.192-8.019 125.923L137.387 0l84.69 39.192Zm-53.105 162.825-57.933 33.056-57.934-33.056 11.783-28.556h92.301l11.783 28.556ZM111.039 62.675l30.357 73.803H80.681l30.358-73.803ZM7.937 165.115 0 39.192 84.69 0 7.937 165.115Z"
      ></path>
    </symbol>
    <symbol id="Cart" viewBox="0 -960 960 960">
      <path
        d="M280-80q-33 0-56.5-23.5T200-160q0-33 23.5-56.5T280-240q33 0 56.5 23.5T360-160q0 33-23.5 56.5T280-80Zm400 0q-33 0-56.5-23.5T600-160q0-33 23.5-56.5T680-240q33 0 56.5 23.5T760-160q0 33-23.5 56.5T680-80ZM246-720l96 200h280l110-200H246Zm-38-80h590q23 0 35 20.5t1 41.5L692-482q-11 20-29.5 31T622-440H324l-44 80h480v80H280q-45 0-68-39.5t-2-78.5l54-98-144-304H40v-80h130l38 80Zm134 280h280-280Z"
      />
    </symbol>
    <symbol id="LightMode" viewBox="0 -960 960 960">
      <path
        d="M480-360q50 0 85-35t35-85q0-50-35-85t-85-35q-50 0-85 35t-35 85q0 50 35 85t85 35Zm0 80q-83 0-141.5-58.5T280-480q0-83 58.5-141.5T480-680q83 0 141.5 58.5T680-480q0 83-58.5 141.5T480-280ZM200-440H40v-80h160v80Zm720 0H760v-80h160v80ZM440-760v-160h80v160h-80Zm0 720v-160h80v160h-80ZM256-650l-101-97 57-59 96 100-52 56Zm492 496-97-101 53-55 101 97-57 59Zm-98-550 97-101 59 57-100 96-56-52ZM154-212l101-97 55 53-97 101-59-57Zm326-268Z"
      />
    </symbol>
    <symbol id="DarkMode" viewBox="0 -960 960 960">
      <path
        d="M480-120q-150 0-255-105T120-480q0-150 105-255t255-105q14 0 27.5 1t26.5 3q-41 29-65.5 75.5T444-660q0 90 63 153t153 63q55 0 101-24.5t75-65.5q2 13 3 26.5t1 27.5q0 150-105 255T480-120Zm0-80q88 0 158-48.5T740-375q-20 5-40 8t-40 3q-123 0-209.5-86.5T364-660q0-20 3-40t8-40q-78 32-126.5 102T200-480q0 116 82 198t198 82Zm-10-270Z"
      />
    </symbol>
    <symbol id="Routine" viewBox="0 -960 960 960">
      <path
        d="M396-396q-32-32-58.5-67T289-537q-5 14-6.5 28.5T281-480q0 83 58 141t141 58q14 0 28.5-2t28.5-6q-39-22-74-48.5T396-396Zm57-56q51 51 114 87.5T702-308q-40 51-98 79.5T481-200q-117 0-198.5-81.5T201-480q0-65 28.5-123t79.5-98q20 72 56.5 135T453-452Zm290 72q-20-5-39.5-11T665-405q8-18 11.5-36.5T680-480q0-83-58.5-141.5T480-680q-20 0-38.5 3.5T405-665q-8-19-13.5-38T381-742q24-9 49-13.5t51-4.5q117 0 198.5 81.5T761-480q0 26-4.5 51T743-380ZM440-840v-120h80v120h-80Zm0 840v-120h80V0h-80Zm323-706-57-57 85-84 57 56-85 85ZM169-113l-57-56 85-85 57 57-85 84Zm671-327v-80h120v80H840ZM0-440v-80h120v80H0Zm791 328-85-85 57-57 84 85-56 57ZM197-706l-84-85 56-57 85 85-57 57Zm199 310Z"
      />
    </symbol>
    <symbol id="Search" viewBox="0 -960 960 960">
      <path
        d="M784-120 532-372q-30 24-69 38t-83 14q-109 0-184.5-75.5T120-580q0-109 75.5-184.5T380-840q109 0 184.5 75.5T640-580q0 44-14 83t-38 69l252 252-56 56ZM380-400q75 0 127.5-52.5T560-580q0-75-52.5-127.5T380-760q-75 0-127.5 52.5T200-580q0 75 52.5 127.5T380-400Z"
      />
    </symbol>
    <symbol id="Downloading" viewBox="0 -960 960 960">
      <path
        d="M439-82q-76-8-141.5-42.5t-113.5-88Q136-266 108.5-335T81-481q0-155 102.5-268.5T440-880v80q-121 17-200 107.5T161-481q0 121 79 211.5T439-162v80Zm40-198L278-482l57-57 104 104v-245h80v245l103-103 57 58-200 200Zm40 198v-80q43-6 82.5-23t73.5-43l58 58q-47 37-101 59.5T519-82Zm158-652q-35-26-74.5-43T520-800v-80q59 6 113 28.5T733-792l-56 58Zm112 506-56-57q26-34 42-73.5t22-82.5h82q-8 59-30 113.5T789-228Zm8-293q-6-43-22-82.5T733-677l56-57q38 45 61 99.5T879-521h-82Z"
      />
    </symbol>
  </defs>
</svg>
